<svg width="34" height="37" viewBox="0 0 34 37" fill="none" xmlns="http://www.w3.org/2000/svg">
    <path
        d="M1.40364 23.9901C1.01926 23.2213 0.764548 22.4062 0.542254 21.5819C0.213444 20.3407 0.0374616 19.0811 0.00504374 17.7936C-0.0783165 14.2276 0.871064 10.972 2.89487 8.04046C4.96498 5.04412 7.73902 2.96474 11.1846 1.78844C13.3149 1.06135 15.5054 0.815901 17.7469 0.991884C19.9791 1.16787 22.0909 1.77454 24.0684 2.82581C24.2166 2.90454 24.3046 2.8536 24.4157 2.7795C25.9347 1.76065 27.5139 0.85295 29.2784 0.306478C29.9869 0.0841836 30.7094 -0.0593812 31.4643 0.023979C32.5896 0.149019 33.2612 0.829795 33.6455 1.83475C33.9743 2.69151 33.9651 3.58531 33.8586 4.47912C33.6085 6.62333 32.9046 8.64713 32.1451 10.6478C31.0753 13.4635 29.5655 16.0477 27.8659 18.5207C25.768 21.568 23.3969 24.393 20.8729 27.0929C19.6503 28.3989 18.3999 29.6771 17.0244 30.8302C15.1257 32.4141 13.1343 33.859 10.9206 34.9751C9.83229 35.5262 8.70693 35.9847 7.47968 36.1375C6.4562 36.2625 5.50682 36.1143 4.76584 35.3085C4.2981 34.7945 4.05728 34.1785 3.96466 33.4978C3.77941 32.113 4.03875 30.7793 4.44166 29.4687C4.96035 27.7783 5.67354 26.1667 6.44694 24.5828C7.48431 22.4525 8.62357 20.3685 9.57295 18.1919C10.0916 17.0017 10.5686 15.8022 10.7863 14.5148C11.004 13.2412 11.1012 11.9538 10.7909 10.6802C10.2537 8.48041 8.04931 7.38747 5.90047 8.24423C4.73342 8.70734 3.86277 9.53631 3.13568 10.5227C1.9038 12.1946 1.11651 14.0609 0.778442 16.1079C0.463525 17.9835 0.537623 19.8545 0.875695 21.7208C1.01463 22.4803 1.21377 23.2213 1.43143 23.9623C1.42217 23.9669 1.41291 23.9808 1.40364 23.9901ZM30.1074 8.26738C30.1907 8.23496 30.2 8.17013 30.2231 8.11456C30.6492 7.21612 31.0197 6.29452 31.2605 5.33125C31.4365 4.62732 31.5662 3.91876 31.4689 3.18704C31.3578 2.33491 30.8344 1.80233 29.9962 1.69118C29.6165 1.64024 29.2413 1.69118 28.8755 1.77918C27.6065 2.08483 26.4858 2.70077 25.4021 3.4047C25.203 3.53437 25.3605 3.57142 25.4438 3.63163C26.7174 4.47449 27.8566 5.47018 28.857 6.62333C29.3108 7.14202 29.7276 7.69312 30.1074 8.26738Z"
        fill="#316aff" />
    <path
        d="M16.9504 33.7293C17.2792 33.5394 17.6127 33.3588 17.9415 33.1597C19.5346 32.201 20.9795 31.0525 22.3364 29.7928C25.5412 26.8197 28.1531 23.3834 30.3714 19.6322C31.1541 18.303 31.8395 16.9276 32.3258 15.4549C32.4369 15.1168 32.5342 14.7787 32.6268 14.436C33.3122 19.1505 32.4184 23.4991 29.4823 27.3152C26.3331 31.4045 22.1141 33.507 16.9875 33.7895C16.9736 33.771 16.9597 33.7478 16.9504 33.7293Z"
        fill="#316aff" />
    <path
        d="M1.43598 23.9575C1.45914 23.9899 1.48229 24.0362 1.44988 24.0548C1.39893 24.0779 1.41283 24.0131 1.40356 23.9899C1.41283 23.9807 1.42209 23.9668 1.43598 23.9575Z"
        fill="#316aff" />
    <path
        d="M1.50555 24.1569C1.50092 24.1708 1.49166 24.1801 1.48703 24.194C1.4824 24.1801 1.46851 24.1708 1.46851 24.1569C1.46851 24.1477 1.47777 24.1338 1.48703 24.1245C1.49166 24.1338 1.49629 24.143 1.50555 24.1569Z"
        fill="#316aff" />
</svg>